<?xml version="1.0" encoding="utf-8"?>
<!-- Generator: Adobe Illustrator 25.0.1, SVG Export Plug-In . SVG Version: 6.00 Build 0)  -->
<svg version="1.1" id="Layer_1" xmlns="http://www.w3.org/2000/svg" xmlns:xlink="http://www.w3.org/1999/xlink" x="0px" y="0px"
	 viewBox="0 0 512 512" style="enable-background:new 0 0 512 512;" xml:space="preserve">
<style type="text/css">
	.st0{fill-rule:evenodd;clip-rule:evenodd;fill:#1D63F8;}
</style>
<g id="Icons">
	<g id="Social-Media-Collection" transform="translate(-107 -190)">
		<g id="Behance" transform="translate(107 190)">
			<path id="Fill-198" class="st0" d="M210.6,263h-46.2v42.4h44.1c6.6-0.2,18.9-2.3,18.9-20.6C227.3,262.8,210.6,263,210.6,263"/>
			<path id="Fill-199" class="st0" d="M328.9,238.6c-24.5,0-27.9,24.5-27.9,24.5h52.1C353.1,263.1,353.5,238.6,328.9,238.6"/>
			<path id="Fill-200" class="st0" d="M210.6,203.2h-6h-40.3v35.4h43.3c7.5,0,14.1-2.4,14.1-18.9S210.6,203.2,210.6,203.2
				L210.6,203.2z"/>
			<g id="Fill-311">
				<path id="Fill-201" class="st0" d="M383.6,284.2h-82.3c0,29.5,28,27.6,28,27.6c26.4,0,25.5-17.1,25.5-17.1h27.9
					c0,45.3-54.3,42.2-54.3,42.2c-65.2,0-61-60.7-61-60.7s-0.1-61,61-61C392.6,215.3,383.6,284.2,383.6,284.2z M261,286.8
					c0,48.4-50.4,46.9-50.4,46.9h-46.2H163h-35V174.9h35h1.4h46.2c25.1,0,44.9,13.9,44.9,42.3c0,28.4-24.2,30.2-24.2,30.2
					C263.2,247.4,261,286.8,261,286.8z M294.2,184.3h65.5v19.6h-65.5V184.3z M256,0C114.6,0,0,114.6,0,256
					c0,141.4,114.6,256,256,256s256-114.6,256-256C512,114.6,397.4,0,256,0z"/>
			</g>
		</g>
	</g>
</g>
</svg>
